<svg xmlns="http://www.w3.org/2000/svg" viewBox="0 0 1200 630" role="img" aria-label="WASMatrix social card">
  <defs>
    <style>
      .title {
        font-family: "Geist", ui-sans-serif, system-ui, sans-serif;
        font-weight: 800;
        letter-spacing: 0;
      }

      .matrix-number {
        font-family: "Geist", ui-sans-serif, system-ui, sans-serif;
        font-size: 24px;
        font-variant-numeric: tabular-nums;
        font-weight: 400;
      }
    </style>
    <pattern id="matrix-grid" width="92" height="56" patternUnits="userSpaceOnUse">
      <path d="M92 0H0V56" fill="none" stroke="#242424" stroke-width="1" opacity=".46"/>
    </pattern>
    <linearGradient id="titleShade" x1="0" x2="1" y1="0" y2="0">
      <stop offset="0" stop-color="#000" stop-opacity=".9"/>
      <stop offset=".44" stop-color="#000" stop-opacity=".5"/>
      <stop offset="1" stop-color="#000" stop-opacity=".06"/>
    </linearGradient>
    <linearGradient id="depthShade" x1="0" x2="0" y1="0" y2="1">
      <stop offset="0" stop-color="#000" stop-opacity=".06"/>
      <stop offset=".62" stop-color="#000" stop-opacity=".2"/>
      <stop offset="1" stop-color="#000" stop-opacity=".72"/>
    </linearGradient>
    <radialGradient id="matrixGlow" cx="77%" cy="16%" r="58%">
      <stop offset="0" stop-color="#000" stop-opacity="0"/>
      <stop offset=".48" stop-color="#000" stop-opacity="0"/>
      <stop offset="1" stop-color="#000" stop-opacity="0"/>
    </radialGradient>
    <filter id="farSoftness" x="-20%" y="-20%" width="140%" height="140%">
      <feGaussianBlur stdDeviation="1.6"/>
    </filter>
    <clipPath id="cardClip">
      <rect width="1200" height="630"/>
    </clipPath>
  </defs>

  <g clip-path="url(#cardClip)">
    <rect width="1200" height="630" fill="#000"/>
    <rect width="1200" height="630" fill="url(#matrixGlow)"/>

    <g transform="translate(-120 -118) rotate(-13 640 326) skewX(-10) scale(1.2 .92)">
      <rect x="-260" y="-180" width="1780" height="1080" fill="url(#matrix-grid)" opacity=".58"/>
      <g class="matrix-number" fill="#666" opacity=".36">
        <text x="-30" y="58">125</text><text x="96" y="58">20</text><text x="222" y="58">126</text><text x="348" y="58">-102</text><text x="474" y="58">54</text><text x="600" y="58">122</text><text x="726" y="58">68</text><text x="852" y="58">40</text><text x="978" y="58">-37</text><text x="1104" y="58">4</text><text x="1230" y="58">-112</text>
        <text x="-30" y="122">-39</text><text x="96" y="122">-44</text><text x="222" y="122">75</text><text x="348" y="122">-20</text><text x="474" y="122">8</text><text x="600" y="122">3</text><text x="726" y="122">42</text><text x="852" y="122">-68</text><text x="978" y="122">10</text><text x="1104" y="122">5</text><text x="1230" y="122">-67</text>
        <text x="-30" y="186">-14</text><text x="96" y="186">-91</text><text x="222" y="186">3</text><text x="348" y="186">47</text><text x="474" y="186">-97</text><text x="600" y="186">-74</text><text x="726" y="186">-61</text><text x="852" y="186">-56</text><text x="978" y="186">59</text><text x="1104" y="186">42</text><text x="1230" y="186">11</text>
        <text x="-30" y="250">93</text><text x="96" y="250">65</text><text x="222" y="250">-70</text><text x="348" y="250">-74</text><text x="474" y="250">103</text><text x="600" y="250">33</text><text x="726" y="250">73</text><text x="852" y="250">-104</text><text x="978" y="250">-113</text><text x="1104" y="250">47</text><text x="1230" y="250">-24</text>
        <text x="-30" y="314">-49</text><text x="96" y="314">108</text><text x="222" y="314">4</text><text x="348" y="314">50</text><text x="474" y="314">60</text><text x="600" y="314">124</text><text x="726" y="314">98</text><text x="852" y="314">-117</text><text x="978" y="314">-18</text><text x="1104" y="314">85</text><text x="1230" y="314">-119</text>
        <text x="-30" y="378">-7</text><text x="96" y="378">-35</text><text x="222" y="378">77</text><text x="348" y="378">27</text><text x="474" y="378">112</text><text x="600" y="378">122</text><text x="726" y="378">106</text><text x="852" y="378">-82</text><text x="978" y="378">41</text><text x="1104" y="378">21</text><text x="1230" y="378">79</text>
        <text x="-30" y="442">-56</text><text x="96" y="442">85</text><text x="222" y="442">4</text><text x="348" y="442">-69</text><text x="474" y="442">-33</text><text x="600" y="442">35</text><text x="726" y="442">-7</text><text x="852" y="442">-74</text><text x="978" y="442">21</text><text x="1104" y="442">57</text><text x="1230" y="442">-111</text>
        <text x="-30" y="506">128</text><text x="96" y="506">98</text><text x="222" y="506">-99</text><text x="348" y="506">-61</text><text x="474" y="506">-90</text><text x="600" y="506">-60</text><text x="726" y="506">124</text><text x="852" y="506">9</text><text x="978" y="506">-4</text><text x="1104" y="506">-77</text><text x="1230" y="506">-98</text>
        <text x="-30" y="570">-23</text><text x="96" y="570">-19</text><text x="222" y="570">-68</text><text x="348" y="570">-60</text><text x="474" y="570">112</text><text x="600" y="570">-54</text><text x="726" y="570">99</text><text x="852" y="570">-125</text><text x="978" y="570">68</text><text x="1104" y="570">123</text><text x="1230" y="570">-64</text>
        <text x="-30" y="634">122</text><text x="96" y="634">89</text><text x="222" y="634">12</text><text x="348" y="634">-64</text><text x="474" y="634">18</text><text x="600" y="634">25</text><text x="726" y="634">-38</text><text x="852" y="634">107</text><text x="978" y="634">109</text><text x="1104" y="634">86</text><text x="1230" y="634">-111</text>
      </g>
      <g class="matrix-number" fill="#666" opacity=".16" filter="url(#farSoftness)">
        <text x="-64" y="690">-74</text><text x="72" y="690">-126</text><text x="208" y="690">-1</text><text x="344" y="690">86</text><text x="480" y="690">-77</text><text x="616" y="690">86</text><text x="752" y="690">-111</text><text x="888" y="690">-64</text><text x="1024" y="690">123</text>
      </g>
    </g>

    <rect width="1200" height="630" fill="url(#titleShade)"/>
    <rect width="1200" height="630" fill="url(#depthShade)"/>
    <text class="title" x="76" y="365" fill="#fff" font-size="136">WASMatrix</text>
  </g>
</svg>
