<svg xmlns="http://www.w3.org/2000/svg" viewBox="0 0 1200 630" role="img" aria-label="WASMatrix documentation">
  <rect width="1200" height="630" fill="#0f172a"/>
  <rect x="74" y="72" width="1052" height="486" rx="32" fill="#111827" stroke="#334155" stroke-width="2"/>
  <g transform="translate(118 118)">
    <rect width="108" height="108" rx="24" fill="#1f6feb"/>
    <g fill="#fff" opacity=".94">
      <rect x="22" y="22" width="18" height="18" rx="3"/>
      <rect x="45" y="22" width="18" height="18" rx="3"/>
      <rect x="68" y="22" width="18" height="18" rx="3"/>
      <rect x="22" y="45" width="18" height="18" rx="3"/>
      <rect x="45" y="45" width="18" height="18" rx="3"/>
      <rect x="68" y="45" width="18" height="18" rx="3"/>
      <rect x="22" y="68" width="18" height="18" rx="3"/>
      <rect x="45" y="68" width="18" height="18" rx="3"/>
      <rect x="68" y="68" width="18" height="18" rx="3"/>
    </g>
  </g>
  <text x="118" y="300" fill="#f8fafc" font-family="Inter Tight, Inter, ui-sans-serif, system-ui, sans-serif" font-size="82" font-weight="750">WASMatrix</text>
  <text x="122" y="374" fill="#cbd5e1" font-family="Inter, ui-sans-serif, system-ui, sans-serif" font-size="34">AssemblyScript matrix operations for WebAssembly SIMD runtimes.</text>
  <text x="122" y="456" fill="#58a6ff" font-family="Inter, ui-sans-serif, system-ui, sans-serif" font-size="28">github.com/ihasq/wasmatrix</text>
  <g fill="#334155">
    <rect x="768" y="142" width="76" height="76" rx="10"/>
    <rect x="862" y="142" width="76" height="76" rx="10"/>
    <rect x="956" y="142" width="76" height="76" rx="10"/>
    <rect x="768" y="236" width="76" height="76" rx="10"/>
    <rect x="862" y="236" width="76" height="76" rx="10"/>
    <rect x="956" y="236" width="76" height="76" rx="10"/>
    <rect x="768" y="330" width="76" height="76" rx="10"/>
    <rect x="862" y="330" width="76" height="76" rx="10"/>
    <rect x="956" y="330" width="76" height="76" rx="10"/>
  </g>
  <path d="M806 180h188M806 274h188M806 368h188M900 180v188" stroke="#58a6ff" stroke-width="10" stroke-linecap="round" opacity=".8"/>
</svg>
